HIERARCHY
ROOT hips
{
	OFFSET 0.000000 104.274902 0.000000
	CHANNELS 6 Xposition Yposition Zposition Xrotation Yrotation Zrotation
	JOINT spine
	{
		OFFSET 0.000000 10.181549 0.131524
		CHANNELS 6 Xposition Yposition Zposition Xrotation Yrotation Zrotation
		JOINT chest
		{
			OFFSET 0.000000 9.893990 -1.470706
			CHANNELS 3 Xrotation Yrotation Zrotation
			JOINT upperChest
			{
				OFFSET 0.000000 9.220787 -1.370637
				CHANNELS 3 Xrotation Yrotation Zrotation
				JOINT neck
				{
					OFFSET 0.000000 16.740372 -2.049022
					CHANNELS 6 Xposition Yposition Zposition Xrotation Yrotation Zrotation
					JOINT head
					{
						OFFSET 0.000000 9.617859 1.684976
						CHANNELS 6 Xposition Yposition Zposition Xrotation Yrotation Zrotation
						JOINT headEnd
						{
							OFFSET 0.000000 22.037384 7.501072
							CHANNELS 6 Xposition Yposition Zposition Xrotation Yrotation Zrotation
							End Site
							{
								OFFSET 0.000000 23.106567 -2.828246
							}
						}
					}
				}
				JOINT rightShoulder
				{
					OFFSET -4.570000 11.014877 -2.160840
					CHANNELS 6 Xposition Yposition Zposition Xrotation Yrotation Zrotation
					JOINT rightUpperArm
					{
						OFFSET -10.592867 -0.524796 -2.232105
						CHANNELS 3 Xrotation Yrotation Zrotation
						JOINT rightLowerArm
						{
							OFFSET -27.841497 0.000000 -0.000002
							CHANNELS 3 Xrotation Yrotation Zrotation
							JOINT rightHand
							{
								OFFSET -28.328812 0.000000 -0.000001
								CHANNELS 3 Xrotation Yrotation Zrotation
								JOINT rightThumbProximal
								{
									OFFSET -2.464798 -1.573990 2.681911
									CHANNELS 6 Xposition Yposition Zposition Xrotation Yrotation Zrotation
									JOINT rightThumbIntermediate
									{
										OFFSET -3.244781 -1.873383 1.873376
										CHANNELS 3 Xrotation Yrotation Zrotation
										JOINT rightThumbDistal
										{
											OFFSET -2.646263 -1.527817 1.527818
											CHANNELS 6 Xposition Yposition Zposition Xrotation Yrotation Zrotation
											JOINT rightHandThumb4
											{
												OFFSET -1.994591 -1.151581 1.151575
												CHANNELS 6 Xposition Yposition Zposition Xrotation Yrotation Zrotation
												End Site
												{
													OFFSET -1.860176 -1.142715 1.365483
												}
											}
										}
									}
								}
								JOINT rightIndexProximal
								{
									OFFSET -9.108299 -0.517883 2.259803
									CHANNELS 6 Xposition Yposition Zposition Xrotation Yrotation Zrotation
									JOINT rightIndexIntermediate
									{
										OFFSET -3.699997 0.000000 0.000000
										CHANNELS 3 Xrotation Yrotation Zrotation
										JOINT rightIndexDistal
										{
											OFFSET -2.850006 0.000000 0.000000
											CHANNELS 3 Xrotation Yrotation Zrotation
											JOINT rightHandIndex4
											{
												OFFSET -2.772194 0.000000 0.000000
												CHANNELS 3 Xrotation Yrotation Zrotation
												End Site
												{
													OFFSET -2.772202 0.000000 -0.000484
												}
											}
										}
									}
								}
								JOINT rightMiddleProximal
								{
									OFFSET -9.532501 0.000000 -0.000000
									CHANNELS 6 Xposition Yposition Zposition Xrotation Yrotation Zrotation
									JOINT rightMiddleIntermediate
									{
										OFFSET -3.699997 0.000000 0.000000
										CHANNELS 3 Xrotation Yrotation Zrotation
										JOINT rightMiddleDistal
										{
											OFFSET -2.949997 0.000000 0.000000
											CHANNELS 3 Xrotation Yrotation Zrotation
											JOINT rightHandMiddle4
											{
												OFFSET -2.946594 0.000000 0.000000
												CHANNELS 3 Xrotation Yrotation Zrotation
												End Site
												{
													OFFSET -2.946602 0.000000 -0.000982
												}
											}
										}
									}
								}
								JOINT rightRingProximal
								{
									OFFSET -9.103600 -0.043106 -1.865100
									CHANNELS 6 Xposition Yposition Zposition Xrotation Yrotation Zrotation
									JOINT rightRingIntermediate
									{
										OFFSET -3.379303 0.000000 0.000000
										CHANNELS 3 Xrotation Yrotation Zrotation
										JOINT rightRingDistal
										{
											OFFSET -2.889694 0.000000 0.000000
											CHANNELS 3 Xrotation Yrotation Zrotation
											JOINT rightHandRing4
											{
												OFFSET -2.638802 0.000000 0.000000
												CHANNELS 3 Xrotation Yrotation Zrotation
												End Site
												{
													OFFSET -2.638802 0.000000 0.004218
												}
											}
										}
									}
								}
								JOINT rightLittleProximal
								{
									OFFSET -8.076698 -0.486725 -3.806299
									CHANNELS 6 Xposition Yposition Zposition Xrotation Yrotation Zrotation
									JOINT rightLittleIntermediate
									{
										OFFSET -3.600006 0.000000 0.000000
										CHANNELS 3 Xrotation Yrotation Zrotation
										JOINT rightLittleDistal
										{
											OFFSET -2.099998 0.000000 0.000000
											CHANNELS 3 Xrotation Yrotation Zrotation
											JOINT rightHandPinky4
											{
												OFFSET -2.115791 0.000000 0.000000
												CHANNELS 3 Xrotation Yrotation Zrotation
												End Site
												{
													OFFSET -2.115799 0.000000 0.000174
												}
											}
										}
									}
								}
							}
						}
					}
				}
				JOINT leftShoulder
				{
					OFFSET 4.570400 11.014679 -2.160816
					CHANNELS 6 Xposition Yposition Zposition Xrotation Yrotation Zrotation
					JOINT leftUpperArm
					{
						OFFSET 10.592373 -0.524597 -2.232116
						CHANNELS 3 Xrotation Yrotation Zrotation
						JOINT leftLowerArm
						{
							OFFSET 27.841488 0.000000 0.000001
							CHANNELS 3 Xrotation Yrotation Zrotation
							JOINT leftHand
							{
								OFFSET 28.328808 0.000000 -0.000000
								CHANNELS 3 Xrotation Yrotation Zrotation
								JOINT leftThumbProximal
								{
									OFFSET 2.466103 -1.576202 2.681698
									CHANNELS 6 Xposition Yposition Zposition Xrotation Yrotation Zrotation
									JOINT leftThumbIntermediate
									{
										OFFSET 3.243317 -1.872528 1.872530
										CHANNELS 3 Xrotation Yrotation Zrotation
										JOINT leftThumbDistal
										{
											OFFSET 2.647881 -1.528763 1.528754
											CHANNELS 6 Xposition Yposition Zposition Xrotation Yrotation Zrotation
											JOINT leftHandThumb4
											{
												OFFSET 1.998924 -1.154083 1.154080
												CHANNELS 6 Xposition Yposition Zposition Xrotation Yrotation Zrotation
												End Site
												{
													OFFSET 1.884041 -1.149155 1.337651
												}
											}
										}
									}
								}
								JOINT leftIndexProximal
								{
									OFFSET 9.109299 -0.518005 2.259900
									CHANNELS 6 Xposition Yposition Zposition Xrotation Yrotation Zrotation
									JOINT leftIndexIntermediate
									{
										OFFSET 3.699997 0.000000 0.000000
										CHANNELS 3 Xrotation Yrotation Zrotation
										JOINT leftIndexDistal
										{
											OFFSET 2.850006 0.000000 0.000000
											CHANNELS 3 Xrotation Yrotation Zrotation
											JOINT leftHandIndex4
											{
												OFFSET 2.774895 0.000000 0.000000
												CHANNELS 3 Xrotation Yrotation Zrotation
												End Site
												{
													OFFSET 2.774902 0.000000 -0.000072
												}
											}
										}
									}
								}
								JOINT leftMiddleProximal
								{
									OFFSET 9.533401 0.000000 0.000000
									CHANNELS 6 Xposition Yposition Zposition Xrotation Yrotation Zrotation
									JOINT leftMiddleIntermediate
									{
										OFFSET 3.699997 0.000000 0.000000
										CHANNELS 3 Xrotation Yrotation Zrotation
										JOINT leftMiddleDistal
										{
											OFFSET 2.949997 0.000000 0.000000
											CHANNELS 3 Xrotation Yrotation Zrotation
											JOINT leftHandMiddle4
											{
												OFFSET 2.952896 0.000000 0.000000
												CHANNELS 3 Xrotation Yrotation Zrotation
												End Site
												{
													OFFSET 2.952904 0.000000 0.000165
												}
											}
										}
									}
								}
								JOINT leftRingProximal
								{
									OFFSET 9.104500 -0.042999 -1.865101
									CHANNELS 6 Xposition Yposition Zposition Xrotation Yrotation Zrotation
									JOINT leftRingIntermediate
									{
										OFFSET 3.149994 0.000000 0.000000
										CHANNELS 3 Xrotation Yrotation Zrotation
										JOINT leftRingDistal
										{
											OFFSET 2.950005 0.000000 0.000000
											CHANNELS 3 Xrotation Yrotation Zrotation
											JOINT leftHandRing4
											{
												OFFSET 2.644302 0.000000 0.000000
												CHANNELS 3 Xrotation Yrotation Zrotation
												End Site
												{
													OFFSET 2.644302 0.000000 0.000083
												}
											}
										}
									}
								}
								JOINT leftLittleProximal
								{
									OFFSET 8.077805 -0.486893 -3.806302
									CHANNELS 6 Xposition Yposition Zposition Xrotation Yrotation Zrotation
									JOINT leftLittleIntermediate
									{
										OFFSET 3.600006 0.000000 0.000000
										CHANNELS 3 Xrotation Yrotation Zrotation
										JOINT leftLittleDistal
										{
											OFFSET 2.099998 0.000000 0.000000
											CHANNELS 3 Xrotation Yrotation Zrotation
											JOINT leftHandPinky4
											{
												OFFSET 2.125496 0.000000 0.000000
												CHANNELS 3 Xrotation Yrotation Zrotation
												End Site
												{
													OFFSET 2.125504 0.000000 -0.001254
												}
											}
										}
									}
								}
							}
						}
					}
				}
			}
		}
	}
	JOINT rightUpperLeg
	{
		OFFSET -8.207800 -6.751701 -1.599544
		CHANNELS 6 Xposition Yposition Zposition Xrotation Yrotation Zrotation
		JOINT rightLowerLeg
		{
			OFFSET 0.000004 -44.370152 0.345934
			CHANNELS 3 Xrotation Yrotation Zrotation
			JOINT rightFoot
			{
				OFFSET 0.000004 -44.423664 -3.043535
				CHANNELS 3 Xrotation Yrotation Zrotation
				JOINT rightToes
				{
					OFFSET 0.000001 -8.728691 10.710592
					CHANNELS 3 Xrotation Yrotation Zrotation
					JOINT rightToesEnd
					{
						OFFSET 0.000000 -0.000665 9.278101
						CHANNELS 3 Xrotation Yrotation Zrotation
						End Site
						{
							OFFSET 0.000000 -0.000665 9.278103
						}
					}
				}
			}
		}
	}
	JOINT leftUpperLeg
	{
		OFFSET 8.207800 -6.751701 -1.599544
		CHANNELS 6 Xposition Yposition Zposition Xrotation Yrotation Zrotation
		JOINT leftLowerLeg
		{
			OFFSET 0.000004 -44.370037 0.346940
			CHANNELS 3 Xrotation Yrotation Zrotation
			JOINT leftFoot
			{
				OFFSET 0.000004 -44.423611 -3.044388
				CHANNELS 3 Xrotation Yrotation Zrotation
				JOINT leftToes
				{
					OFFSET 0.000001 -8.728690 10.710592
					CHANNELS 3 Xrotation Yrotation Zrotation
					JOINT leftToesEnd
					{
						OFFSET 0.000000 -0.000680 9.278101
						CHANNELS 3 Xrotation Yrotation Zrotation
						End Site
						{
							OFFSET 0.000000 -0.000680 9.278101
						}
					}
				}
			}
		}
	}
}
MOTION
Frames: 4
Frame Time: 0.033333
8.913839 101.951294 1.006963 2.058974 0.804544 -14.304907 -0.000004 10.181541 0.131523 -1.286546 -0.816144 0.189349 -2.431812 -2.027159 5.888268 -2.461409 -1.986895 5.890215 -0.000000 16.740360 -2.049017 1.328070 1.386984 2.157552 -0.000001 9.617855 1.684964 4.888058 9.482802 1.353769 -0.000001 22.037369 7.501075 0.000001 -0.000000 0.000000 -4.570001 11.014870 -2.160838 -0.050919 -9.750719 4.127338 -14.353583 -0.142635 12.507463 -0.000013 31.209894 0.000019 9.800616 12.539378 -14.931084 -2.464806 -1.574007 2.681910 -1.849249 -3.581790 -6.586145 4.637200 -8.634135 -0.225374 -2.646272 -1.527817 1.527817 -1.273760 0.137316 -2.094878 -1.994595 -1.151595 1.151573 0.000003 -0.000007 0.000002 -9.108296 -0.517898 2.259803 -0.000000 0.000002 0.000002 -0.000001 0.000002 0.000000 0.000001 -0.000004 -0.000000 -0.000001 -0.000001 -0.000001 -9.532506 -0.000014 0.000009 0.000002 0.000002 0.000002 0.000001 -0.000004 0.000025 -0.000003 0.000001 -0.000004 -0.000002 -0.000002 -0.000000 -9.103604 -0.043105 -1.865097 -0.000000 0.000001 0.000002 -0.000000 -0.000005 0.000042 -0.000001 0.000001 -0.000005 -0.000004 -0.000005 0.000002 -8.076703 -0.486739 -3.806290 -0.000000 0.000002 0.000002 -0.000001 0.000000 0.000001 0.000001 -0.000001 -0.000000 -0.000003 -0.000003 -0.000001 4.570398 11.014698 -2.160812 -0.404059 1.828952 11.810715 31.168947 -0.955634 9.600133 0.000014 -42.583569 0.000008 -20.588345 -7.665477 -1.888678 2.466106 -1.576193 2.681708 -1.539948 3.690279 6.142356 3.939047 7.948705 0.746802 2.647882 -1.528788 1.528753 -0.579473 1.575003 2.538711 1.998924 -1.154079 1.154074 -0.000000 -0.000005 0.000003 9.109303 -0.518018 2.259907 0.000012 -0.000003 0.000001 0.000001 0.000002 -0.000001 0.000001 0.000002 -0.000001 0.000001 0.000005 -0.000002 9.533396 -0.000005 0.000010 0.000003 -0.001926 0.015976 -0.000001 0.001928 -0.015976 0.000000 -0.000001 -0.000002 0.000001 -0.000001 -0.000001 9.104505 -0.042995 -1.865096 0.000012 -0.000003 0.000001 0.000000 0.000002 -0.000001 0.000000 0.000002 -0.000001 0.000000 0.000004 -0.000000 8.077804 -0.486898 -3.806291 -0.018088 4.054256 0.511082 -0.018089 -4.054251 -0.511079 0.000000 -0.000001 0.000000 0.000001 -0.000003 0.000000 -8.207803 -6.751709 -1.599544 -3.090540 -9.054608 -6.230711 4.528143 -0.855907 0.510175 35.366617 4.354600 16.513336 -30.351827 -0.182954 3.768407 0.000000 -0.000001 0.000000 8.207801 -6.751697 -1.599542 -16.429030 16.187810 20.960030 23.856311 -0.523779 10.490935 -14.366847 2.580104 -13.042171 -0.000003 -0.000002 -0.000000 -0.000000 -0.000000 0.000000 
9.462248 101.881889 0.606883 1.494206 0.723681 -14.575105 -0.000001 10.181556 0.131525 -1.259354 -0.712113 -0.224637 -2.386737 -1.848977 5.239901 -2.414657 -1.808612 5.241801 0.000001 16.740374 -2.049022 1.631995 1.213828 2.610593 0.000000 9.617872 1.684974 5.313613 8.782329 3.641945 -0.000001 22.037384 7.501073 -0.000000 0.000000 -0.000000 -4.569997 11.014868 -2.160842 0.033269 -10.287337 5.045286 -12.666517 -0.216429 15.312613 -0.000026 29.920586 0.000045 9.025794 12.476119 -15.519568 -2.464796 -1.574009 2.681909 -1.849257 -3.581800 -6.586135 4.637198 -8.634134 -0.225380 -2.646257 -1.527807 1.527825 -1.273759 0.137311 -2.094881 -1.994597 -1.151567 1.151574 -0.000000 -0.000001 -0.000000 -9.108298 -0.517899 2.259797 -0.000002 -0.000001 -0.000000 -0.000004 0.000002 -0.000000 0.000000 -0.000003 0.000001 -0.000002 -0.000004 -0.000001 -9.532485 -0.000016 -0.000005 -0.000002 -0.000001 -0.000000 0.000001 -0.000005 0.000024 -0.000001 -0.000001 -0.000003 0.000000 -0.000001 -0.000000 -9.103600 -0.043106 -1.865103 -0.000000 0.000001 -0.000000 -0.000000 -0.000007 0.000042 0.000000 -0.000001 -0.000005 -0.000001 -0.000003 0.000000 -8.076684 -0.486713 -3.806298 -0.000007 -0.000005 0.000001 -0.000001 0.000000 0.000000 0.000001 -0.000001 -0.000001 -0.000001 0.000000 0.000000 4.570402 11.014689 -2.160816 -0.422554 2.210262 10.836553 28.011355 -5.332145 11.328385 -0.000001 -33.924327 -0.000002 -8.772592 -11.690842 12.875368 2.466096 -1.576189 2.681692 -1.539952 3.690280 6.142358 3.939046 7.948701 0.746805 2.647887 -1.528770 1.528743 -0.579474 1.575006 2.538712 1.998924 -1.154091 1.154071 -0.000001 -0.000003 0.000003 9.109300 -0.518034 2.259894 0.000010 0.000004 0.000003 0.000000 0.000003 0.000000 0.000000 0.000003 0.000000 0.000000 0.000001 0.000001 9.533402 0.000011 -0.000010 0.000001 -0.001922 0.015976 -0.000002 0.001927 -0.015978 -0.000003 0.000003 -0.000000 -0.000002 0.000005 -0.000001 9.104501 -0.043013 -1.865103 0.000010 0.000004 0.000003 0.000000 -0.000001 0.000001 0.000000 -0.000001 0.000001 0.000002 -0.000001 0.000002 8.077808 -0.486886 -3.806309 -0.018088 4.054260 0.511083 -0.018088 -4.054250 -0.511080 -0.000001 0.000003 -0.000001 -0.000003 0.000003 -0.000001 -8.207803 -6.751705 -1.599544 -2.922874 -7.639627 -5.835068 5.007112 -1.922544 0.202350 35.313485 3.938132 14.984574 -30.290888 -0.235687 4.828342 -0.000000 0.000002 -0.000000 8.207797 -6.751689 -1.599543 -16.877037 16.709260 21.323623 25.041659 -1.205990 10.479937 -14.939828 2.467904 -12.486106 -0.000100 -0.000007 0.000004 0.000000 0.000000 0.000000 
9.874910 101.763763 0.308716 0.670895 0.418756 -14.880096 -0.000000 10.181542 0.131523 -1.250462 -0.685953 -0.500997 -2.361335 -1.865234 4.933473 -2.390809 -1.823396 4.935570 0.000001 16.740366 -2.049021 2.028634 1.213487 2.776663 0.000001 9.617842 1.684976 6.288101 8.760148 4.914861 -0.000001 22.037354 7.501072 -0.000000 -0.000000 -0.000000 -4.570000 11.014852 -2.160841 0.029535 -9.874413 4.869629 -10.617405 -0.289502 17.693132 -0.000021 28.827486 0.000032 8.165869 12.399408 -15.896523 -2.464794 -1.573999 2.681902 -1.849258 -3.581798 -6.586144 4.637202 -8.634140 -0.225380 -2.646271 -1.527810 1.527817 -1.273761 0.137311 -2.094875 -1.994605 -1.151586 1.151578 -0.000003 -0.000001 -0.000000 -9.108293 -0.517883 2.259796 -0.000003 -0.000003 0.000001 -0.000001 0.000001 -0.000000 0.000001 -0.000002 -0.000001 -0.000003 0.000000 -0.000002 -9.532502 -0.000015 -0.000011 -0.000003 -0.000003 0.000000 -0.000000 -0.000002 0.000024 -0.000002 0.000002 -0.000002 -0.000001 -0.000000 0.000000 -9.103593 -0.043091 -1.865108 -0.000005 -0.000002 0.000001 -0.000000 -0.000005 0.000042 -0.000001 -0.000002 -0.000004 0.000000 -0.000000 0.000000 -8.076696 -0.486729 -3.806307 -0.000007 -0.000002 0.000003 -0.000002 0.000001 -0.000000 -0.000001 -0.000000 -0.000001 -0.000002 0.000002 -0.000001 4.570398 11.014691 -2.160813 -0.413628 2.642960 9.281753 23.299792 -9.265174 10.217727 0.000003 -28.940765 0.000006 -2.171813 -15.967558 23.250806 2.466102 -1.576205 2.681692 -1.539949 3.690279 6.142358 3.939047 7.948705 0.746804 2.647886 -1.528756 1.528751 -0.579469 1.575006 2.538712 1.998925 -1.154078 1.154083 0.000003 0.000003 -0.000000 9.109304 -0.518000 2.259887 0.000011 -0.000002 0.000004 0.000000 0.000000 0.000000 0.000000 0.000000 0.000000 -0.000001 -0.000001 0.000000 9.533399 0.000011 -0.000005 0.000001 -0.001924 0.015978 -0.000001 0.001927 -0.015977 0.000000 0.000002 0.000001 -0.000003 0.000000 0.000001 9.104498 -0.042994 -1.865109 0.000011 -0.000002 0.000004 0.000002 -0.000001 0.000000 0.000002 -0.000001 0.000000 -0.000001 -0.000000 0.000001 8.077806 -0.486910 -3.806311 -0.018089 4.054257 0.511084 -0.018091 -4.054252 -0.511080 -0.000001 -0.000000 0.000001 0.000000 -0.000001 0.000002 -8.207800 -6.751728 -1.599544 -2.628079 -7.632757 -5.492499 5.488294 -1.846595 -0.002326 35.037228 3.551904 13.667979 -30.401558 -0.284248 5.285581 0.000000 0.000000 0.000000 8.207800 -6.751720 -1.599542 -17.005243 17.299957 21.847603 26.297091 -1.892298 10.461786 -15.672859 2.366472 -12.006610 -0.000055 0.000009 -0.000007 0.000000 -0.000000 0.000000 
10.175756 101.598938 0.185284 -0.198244 -0.368024 -15.289170 -0.000003 10.181552 0.131525 -1.251255 -0.616214 -0.750859 -2.351000 -1.818872 4.817617 -2.381526 -1.774332 4.819994 -0.000002 16.740374 -2.049019 2.513535 1.261706 2.874752 0.000002 9.617854 1.684974 7.183373 8.991429 5.559751 -0.000002 22.037338 7.501077 -0.000000 0.000000 -0.000000 -4.569999 11.014852 -2.160840 0.017798 -9.278593 4.539148 -8.968596 0.095231 19.412535 -0.000014 28.087546 0.000026 7.561574 12.177383 -16.402554 -2.464802 -1.574000 2.681906 -1.849249 -3.581798 -6.586133 4.637201 -8.634134 -0.225379 -2.646277 -1.527797 1.527815 -1.273763 0.137307 -2.094879 -1.994613 -1.151582 1.151568 0.000002 -0.000004 0.000003 -9.108300 -0.517900 2.259797 -0.000001 0.000001 0.000001 -0.000001 0.000003 0.000000 0.000001 -0.000000 -0.000000 -0.000001 0.000002 -0.000001 -9.532495 -0.000017 -0.000007 -0.000001 0.000001 0.000001 -0.000000 -0.000002 0.000025 0.000001 0.000000 -0.000004 -0.000001 0.000003 0.000001 -9.103601 -0.043108 -1.865106 -0.000001 0.000002 0.000001 -0.000002 -0.000004 0.000043 -0.000001 -0.000001 -0.000005 -0.000002 0.000002 -0.000000 -8.076707 -0.486732 -3.806299 -0.000002 -0.000005 0.000016 -0.000002 0.000002 0.000002 -0.000000 0.000000 0.000001 -0.000002 0.000001 0.000001 4.570401 11.014694 -2.160815 -0.399506 3.082653 7.702978 15.497412 -12.375709 7.053719 0.000003 -28.364563 0.000003 2.979206 -19.680799 28.354152 2.466102 -1.576174 2.681687 -1.539947 3.690276 6.142358 3.939045 7.948709 0.746805 2.647887 -1.528748 1.528779 -0.579474 1.575001 2.538715 1.998920 -1.154095 1.154073 0.000002 0.000003 0.000005 9.109303 -0.518015 2.259887 0.000013 0.000000 0.000001 0.000001 0.000004 0.000000 0.000001 0.000004 0.000000 -0.000000 0.000001 0.000000 9.533405 -0.000002 -0.000019 0.000006 -0.001926 0.015975 -0.000003 0.001928 -0.015979 0.000001 0.000001 0.000002 0.000000 0.000002 0.000002 9.104512 -0.042994 -1.865107 0.000013 0.000000 0.000001 0.000001 0.000000 0.000001 0.000001 0.000000 0.000001 0.000002 0.000001 0.000002 8.077816 -0.486883 -3.806313 -0.018085 4.054256 0.511083 -0.018089 -4.054254 -0.511078 0.000003 -0.000000 0.000000 0.000001 -0.000002 0.000001 -8.207806 -6.751703 -1.599544 -2.394546 -8.078453 -5.200975 5.883060 -1.164216 -0.024244 34.869219 3.292078 12.762294 -30.528026 -0.321543 5.611112 -0.000000 0.000001 -0.000000 8.207794 -6.751706 -1.599544 -16.828676 17.714873 22.453731 27.480264 -1.966717 10.426869 -16.525231 2.309679 -11.761073 -0.000048 0.000005 0.000003 0.000000 0.000002 0.000000 
